/vscmnt/brussel_pixiu_data/_data_brussel/112/vsc11236/PredSimResults/SUBJ07mtu3D/weighted-trackIG/worker_05.mot
version=1
nRows=4
nColumns=50
inDegrees=yes
endheader
                time	         pelvis_tilt	         pelvis_list	     pelvis_rotation	           pelvis_tx	           pelvis_ty	           pelvis_tz	       hip_flexion_r	     hip_adduction_r	      hip_rotation_r	        knee_angle_r	       ankle_angle_r	         mtp_angle_r	       hip_flexion_l	     hip_adduction_l	      hip_rotation_l	        knee_angle_l	       ankle_angle_l	         mtp_angle_l	    lumbar_extension	      lumbar_bending	     lumbar_rotation	 ercspn_r/activation	 intobl_r/activation	 extobl_r/activation	    abd_r/activation	    add_r/activation	hamstrings_r/activation	bifemsh_r/activation	glut_max_r/activation	iliopsoas_r/activation	rect_fem_r/activation	  vasti_r/activation	gastroc_r/activation	 soleus_r/activation	tib_ant_r/activation	 ercspn_l/activation	 intobl_l/activation	 extobl_l/activation	    abd_l/activation	    add_l/activation	hamstrings_l/activation	bifemsh_l/activation	glut_max_l/activation	iliopsoas_l/activation	rect_fem_l/activation	  vasti_l/activation	gastroc_l/activation	 soleus_l/activation	tib_ant_l/activation	
          0.00000000	         -6.69378197	         -3.81858999	         10.10584794	          0.00000000	          0.84676070	         -0.01525233	         31.08306647	         -0.73101719	         -8.52332908	         -4.20752197	          7.10825444	          0.24615594	        -11.61453579	         -4.30837690	          6.13185867	         -6.99618928	          8.93690455	         27.55215218	         -5.51925096	          1.54277702	         -3.18715766	          0.09384653	          0.18376763	          0.02937177	          0.01197169	          0.15041140	          0.05065797	          0.18200210	          0.01313713	          0.07581008	          0.01000000	          0.01000000	          0.01345733	          0.00999999	          0.27223565	          0.03549748	          0.00999999	          0.00999999	          0.04190987	          0.06140800	          0.03172915	          0.13815053	          0.03869719	          0.41365086	          0.01000000	          0.00999999	          0.30688529	          0.27481707	          0.01715802	
          0.01183020	         -6.77818588	         -3.65816413	         10.02791747	          0.01599330	          0.84479530	         -0.01481960	         31.23309712	         -0.58916257	         -7.69792145	         -6.08741929	          6.79356206	          0.23809488	        -11.72360623	         -4.16604737	          5.57155069	         -8.73610837	          8.34874237	         29.26553200	         -5.32027484	          2.01594238	         -3.25900100	          0.07839032	          0.15937356	          0.02453434	          0.00999999	          0.20959970	          0.04773499	          0.15202696	          0.07595295	          0.06332441	          0.01000000	          0.00999999	          0.02293448	          0.01939194	          0.27868999	          0.08836733	          0.00999999	          0.00999999	          0.03500745	          0.11251592	          0.02650346	          0.11539760	          0.03232389	          0.42890115	          0.01000000	          0.01000000	          0.26344768	          0.25847918	          0.01433215	
          0.02366039	         -6.84455584	         -3.49765266	          9.88812980	          0.03231447	          0.84302388	         -0.01434887	         31.17299031	         -0.45424319	         -6.84477574	         -7.80205063	          6.44793300	          0.23162270	        -11.65424355	         -4.00466002	          4.96159715	        -10.88046921	          7.63621576	         30.96183547	         -5.10313535	          2.51259779	         -3.30979606	          0.07495720	          0.13312526	          0.02049362	          0.05936350	          0.20151995	          0.05589426	          0.12698863	          0.10114427	          0.05289509	          0.00999999	          0.00999999	          0.01915725	          0.01619816	          0.32154153	          0.11211358	          0.00999999	          0.00999999	          0.02924184	          0.11048497	          0.02367725	          0.09639200	          0.02700025	          0.41414212	          0.01000000	          0.00999999	          0.22005872	          0.23976507	          0.01197169	
          0.03549059	         -6.89477977	         -3.33306569	          9.68739422	          0.04874934	          0.84160844	         -0.01377728	         30.93613017	         -0.29525253	         -6.07571885	         -9.21887194	          6.02514958	          0.21623483	        -11.33937111	         -3.82591185	          4.31061571	        -13.50224291	          6.74009937	         32.57022187	         -4.88922462	          3.01418330	         -3.33830334	          0.08450247	          0.11119998	          0.01711838	          0.10389923	          0.20849048	          0.05273422	          0.10607403	          0.13380043	          0.04418344	          0.00999999	          0.00999999	          0.01600211	          0.01353037	          0.34304771	          0.14222743	          0.00999999	          0.00999999	          0.02442580	          0.11704830	          0.02400516	          0.08051656	          0.02255340	          0.39090390	          0.00999999	          0.00999999	          0.18381578	          0.20296171	          0.00999999	
